<?xml version="1.0" standalone="no"?>
<!DOCTYPE svg PUBLIC "-//W3C//DTD SVG 20010904//EN"
 "http://www.w3.org/TR/2001/REC-SVG-20010904/DTD/svg10.dtd">
<svg version="1.0" xmlns="http://www.w3.org/2000/svg"
 width="512.000000pt" height="512.000000pt" viewBox="0 0 512.000000 512.000000"
 preserveAspectRatio="xMidYMid meet">
<metadata>
Created by potrace 1.14, written by Peter Selinger 2001-2017
</metadata>
<g transform="translate(0.000000,512.000000) scale(0.100000,-0.100000)"
fill="#000000" stroke="none">
<path d="M4733 4700 c-199 -101 -429 -302 -623 -543 l-54 -68 -61 6 c-33 4
-71 8 -85 10 -137 21 -415 21 -570 0 -88 -12 -116 -17 -210 -37 -138 -29 -289
-81 -407 -140 -147 -72 -175 -73 -321 -2 -181 88 -433 160 -625 178 -31 4 -82
8 -112 11 -135 14 -397 4 -535 -19 -14 -3 -43 -7 -65 -11 -67 -10 -225 -52
-320 -85 -180 -64 -274 -126 -305 -200 l-12 -30 -115 0 c-63 0 -134 -5 -158
-11 -54 -14 -108 -60 -135 -114 -19 -39 -19 -74 -19 -1468 l-1 -1428 21 -42
c23 -45 57 -80 104 -105 27 -14 136 -16 1099 -17 l1070 0 11 -52 c15 -65 52
-114 106 -141 37 -18 58 -21 160 -19 113 2 119 3 160 32 51 36 75 75 84 135
l7 45 1056 0 c1165 -1 1112 -4 1178 62 67 66 62 -42 63 1525 l1 1428 -21 45
c-35 74 -114 125 -193 125 -14 0 -26 2 -26 5 0 3 15 36 34 73 69 138 153 379
170 488 22 135 25 224 10 261 -31 72 -149 153 -226 153 -25 0 -69 -17 -135
-50z"/>
</g>
</svg>
